<!-- Generated by IcoMoon.io -->
<svg version="1.1" xmlns="http://www.w3.org/2000/svg" width="1024" height="1024" viewBox="0 0 1024 1024">
<title></title>
<g id="icomoon-ignore">
</g>
<path d="M763.072 307.008c0 25.449-20.631 46.080-46.080 46.080s-46.080-20.631-46.080-46.080c0-25.449 20.631-46.080 46.080-46.080s46.080 20.631 46.080 46.080z"></path>
<path d="M512 314.816c-108.902 0-197.184 88.282-197.184 197.184s88.282 197.184 197.184 197.184c108.902 0 197.184-88.282 197.184-197.184v0c0-108.902-88.282-197.184-197.184-197.184v0zM512 640c-70.692 0-128-57.308-128-128s57.308-128 128-128c70.692 0 128 57.308 128 128v0c0 70.692-57.308 128-128 128v0z"></path>
<path d="M512 197.184c102.528 0 114.688 0.384 155.168 2.24 25.68 0.314 50.14 5.134 72.758 13.702l-1.462-0.486c33.596 13.208 59.688 39.3 72.596 72.034l0.3 0.862c8.082 21.156 12.902 45.616 13.215 71.162l0.001 0.134c1.856 40.48 2.24 52.64 2.24 155.2s-0.384 114.656-2.24 155.136c-0.314 25.68-5.134 50.14-13.702 72.758l0.486-1.462c-13.208 33.596-39.3 59.688-72.034 72.596l-0.862 0.3c-21.156 8.082-45.616 12.902-71.162 13.215l-0.134 0.001c-40.48 1.856-52.64 2.24-155.168 2.24s-114.688-0.384-155.168-2.24c-25.68-0.314-50.14-5.134-72.758-13.702l1.462 0.486c-33.596-13.208-59.688-39.3-72.596-72.034l-0.3-0.862c-8.082-21.156-12.902-45.616-13.215-71.162l-0.001-0.134c-1.856-40.48-2.24-52.64-2.24-155.168s0.384-114.688 2.24-155.168c0.314-25.68 5.134-50.14 13.702-72.758l-0.486 1.462c13.208-33.596 39.3-59.688 72.034-72.596l0.862-0.3c21.156-8.082 45.616-12.902 71.162-13.215l0.134-0.001c40.48-1.856 52.64-2.24 155.168-2.24zM512 128c-104.288 0-117.376 0.448-158.336 2.304-33.65 0.7-65.577 7.189-95.115 18.506l1.931-0.65c-51.741 20.39-91.93 60.579-111.857 110.99l-0.463 1.33c-10.671 27.617-17.16 59.556-17.851 92.92l-0.005 0.296c-1.856 40.96-2.304 53.984-2.304 158.304s0.448 117.376 2.304 158.336c0.7 33.65 7.189 65.577 18.506 95.115l-0.65-1.931c20.39 51.741 60.579 91.93 110.99 111.857l1.33 0.463c27.617 10.671 59.556 17.16 92.92 17.851l0.296 0.005c40.96 1.856 54.016 2.304 158.304 2.304s117.376-0.448 158.336-2.304c33.66-0.696 65.599-7.185 95.147-18.506l-1.931 0.65c51.741-20.39 91.93-60.579 111.857-110.99l0.463-1.33c10.661-27.619 17.139-59.56 17.819-92.925l0.005-0.291c1.856-40.96 2.304-53.984 2.304-158.304s-0.448-117.376-2.304-158.336c-0.7-33.65-7.189-65.577-18.506-95.115l0.65 1.931c-20.39-51.741-60.579-91.93-110.99-111.857l-1.33-0.463c-27.619-10.661-59.56-17.139-92.925-17.819l-0.291-0.005c-40.96-1.92-53.984-2.336-158.304-2.336z"></path>
</svg>
