<!-- Generated by IcoMoon.io -->
<svg version="1.1" xmlns="http://www.w3.org/2000/svg" width="1024" height="1024" viewBox="0 0 1024 1024">
<title></title>
<g id="icomoon-ignore">
</g>
<path d="M936.32 117.973c-11.375-9.481-26.144-15.236-42.257-15.236-8.943 0-17.472 1.773-25.255 4.986l0.44-0.161-764.459 308.608c-24.152 10.116-40.811 33.559-40.811 60.894 0 28.586 18.219 52.917 43.679 62.014l0.46 0.143 164.949 57.259 89.387 295.509c0.171 0.597 0.725 0.981 0.981 1.536 0.98 2.47 2.321 4.592 3.983 6.417l-0.015-0.017c2.534 2.822 5.798 4.941 9.495 6.063l0.148 0.039c0.427 0.171 0.725 0.555 1.152 0.64h0.256l0.128 0.043c1.209 0.272 2.597 0.428 4.021 0.428 2.116 0 4.152-0.344 6.055-0.979l-0.135 0.039c0.341-0.085 0.683-0.085 1.067-0.213 3.2-1.143 5.927-2.922 8.145-5.201l0.005-0.005c0.256-0.299 0.683-0.341 0.939-0.597l128.555-141.909 187.605 145.28c11.392 8.917 25.429 13.739 39.893 13.739 31.317 0 58.325-21.931 64.768-52.523l139.179-683.435c0.835-3.921 1.313-8.425 1.313-13.042 0-20.209-9.165-38.277-23.565-50.275l-0.105-0.085zM409.088 652.587l-30.165 146.645-62.933-208.128 312.107-162.56-213.205 213.248c-2.866 2.864-4.917 6.541-5.778 10.656l-0.024 0.138zM777.685 856.192c-1.687 7.945-7.288 14.281-14.645 16.973l-0.16 0.051c-2.387 0.946-5.152 1.495-8.045 1.495-5.266 0-10.107-1.817-13.931-4.858l0.046 0.035-203.221-157.397c-3.565-2.773-8.105-4.446-13.036-4.446-6.259 0-11.888 2.695-15.791 6.989l-0.016 0.017-89.472 98.603 30.123-146.219 306.731-306.773c3.846-3.858 6.224-9.181 6.224-15.060 0-11.782-9.551-21.333-21.333-21.333-3.583 0-6.96 0.883-9.924 2.444l0.117-0.056-442.155 230.315-167.125-58.112c-8.923-3.011-15.26-11.243-15.402-20.975v-0.017c-0.015-0.306-0.023-0.664-0.023-1.024 0-9.501 5.838-17.639 14.122-21.022l0.152-0.055 764.331-308.608c2.638-1.151 5.712-1.821 8.943-1.821 5.69 0 10.894 2.078 14.896 5.516l-0.030-0.025c5.067 4.124 8.278 10.36 8.278 17.347 0 1.685-0.187 3.326-0.54 4.903l0.028-0.149-139.136 683.307z"></path>
</svg>
