<?xml version="1.0" encoding="utf-8"?>
<!-- Generator: Adobe Illustrator 23.1.0, SVG Export Plug-In . SVG Version: 6.00 Build 0)  -->
<svg version="1.1" id="Слой_1" xmlns="http://www.w3.org/2000/svg" xmlns:xlink="http://www.w3.org/1999/xlink" x="0px" y="0px"
	 viewBox="0 0 1024 1024" style="enable-background:new 0 0 1024 1024;" xml:space="preserve">
<title></title>
<g id="icomoon-ignore">
</g>
<g>
	<path d="M536.7,779.6c-124.7,0-230.4-58-314.7-173C144.2,500.5,101.9,370.7,73.9,284.8l-2.2-6.8c-2.5-7.8-1.2-16.3,3.6-23
		s12.5-10.6,20.7-10.6h146.6c9.9,0,18.8,5.7,23.1,14.6c8.6,18.1,17.3,36.9,25.7,55.1c35,76.2,73.8,160.7,115.7,192.4V339.3
		l-42.9-53.1c-6.2-7.7-7.4-18.2-3.2-27.1c4.3-8.9,13.2-14.6,23.1-14.6h203.7c14.1,0,25.6,11.5,25.6,25.6v189.4
		c34.3-36.3,57.5-79.4,81.8-124.3c14.1-26.2,28.7-53.3,45.8-79.1c4.7-7.2,12.8-11.5,21.4-11.5h140.4c7.9,0,15.4,3.7,20.3,10
		c4.8,6.3,6.5,14.5,4.5,22.2c-27,102.3-79.3,173.3-129.8,242c-1.2,1.6-2.4,3.2-3.6,4.9c66.4,60.2,119.3,132.9,157.3,216.6
		c3.6,7.9,2.9,17.1-1.8,24.5c-4.7,7.3-12.8,11.7-21.5,11.7H773.5c-6.1,0-12.1-2.2-16.7-6.2c-19.5-16.8-35.7-35.4-51.3-53.3
		c-28-32.2-53-60.7-92.2-75v108.9c0,12.9-9.6,23.8-22.4,25.4C572.5,778.5,554.4,779.6,536.7,779.6z M587.7,750.7L587.7,750.7
		L587.7,750.7z M131.3,295.7c26.9,81.5,66.5,191.4,132,280.6C344,686.4,442,736,562.1,727.5V609.1c0-7.5,3.3-14.6,8.9-19.4
		s13.2-7,20.5-5.9c34.3,5.2,64.3,17.9,91.8,38.9c23.6,17.9,42.4,39.6,60.7,60.5c13,14.9,25.4,29.1,39.2,42h103.5
		c-36.5-68.4-84.4-127.9-142.9-177.3l-0.8-0.7c-10.5-8.6-12.4-23.9-4.4-34.8c5.9-8.1,11.8-16.2,17.6-24
		c43.9-59.7,85.7-116.5,111.8-192.6h-91.9c-12.7,20.4-24.1,41.5-36.1,63.7c-34,63.1-69.2,128.4-137.6,177.1
		c-7.8,5.6-18.1,6.3-26.6,1.9c-8.5-4.4-13.9-13.2-13.9-22.8V295.7H437.6l14.9,18.5c3.7,4.6,5.7,10.2,5.7,16.1v214.4
		c0,7.3-3.1,14.3-8.6,19.1s-12.7,7.2-20,6.3c-21.1-2.5-41.6-12.1-61-28.7c-15.8-13.5-31.1-31.8-46.8-55.7
		c-27.7-42.3-52.9-97.1-77.2-150c-6-13.2-12.2-26.7-18.4-39.9H131.3z"/>
</g>
</svg>
